<svg width="20" height="20" viewBox="0 0 20 20" fill="none" xmlns="http://www.w3.org/2000/svg">
  <path d="M10.94 2.82a2.18 2.18 0 0 0-.47-.6 2.51 2.51 0 0 0-.53-.4A2.86 2.86 0 0 0 8.32 2c-1.42.08-2.62 1.95-2.62 1.95S3.2 8.43 2.5 9.9c-.84 1.76 1.15 2.47 1.15 2.47l4.32 3.13h.21a.63.63 0 0 0 .21-.04s0-.82.11-1.93a.76.76 0 0 1 .42-.03c.18 0 .39.03.39.03v2.12s-.08.06-.48.06h-2.6l2.59 2.14h7.36l-4.6-3.57.03-.79.87.65c.36.27.61.12.61.12s1.82-1.73 2.88-2.75c1.52-1.46-.16-2.4-.16-2.4s-4.39-4-4.42-4.03c-.03-.02-.07-.06.05-.03s4.45 1.3 4.45 1.3.74.22 1.13-.15A3.86 3.86 0 0 0 18 5.01a.8.8 0 0 0 .07-.5c-.04-.34-.19-.43-.19-.43s-2.1-1.52-2.1-1.52a.84.84 0 0 0-.5-.16 2.45 2.45 0 0 0-1.45.5l-2.87 1.57-1.1-.83s.59-1.45 1.08-1.82z" fill="currentColor"/>
</svg> 