<svg width="120" height="120" viewBox="0 0 120 120" fill="none" xmlns="http://www.w3.org/2000/svg">
  <rect width="120" height="120" fill="white"/>
  <g fill="black">
    <!-- QR code pattern - simplified representation -->
    <rect x="10" y="10" width="10" height="10" />
    <rect x="20" y="10" width="10" height="10" />
    <rect x="30" y="10" width="10" height="10" />
    <rect x="40" y="10" width="10" height="10" />
    <rect x="50" y="10" width="10" height="10" />
    <rect x="60" y="10" width="10" height="10" />
    <rect x="70" y="10" width="10" height="10" />
    <rect x="10" y="20" width="10" height="10" />
    <rect x="70" y="20" width="10" height="10" />
    <rect x="10" y="30" width="10" height="10" />
    <rect x="30" y="30" width="10" height="10" />
    <rect x="40" y="30" width="10" height="10" />
    <rect x="50" y="30" width="10" height="10" />
    <rect x="70" y="30" width="10" height="10" />
    <rect x="10" y="40" width="10" height="10" />
    <rect x="30" y="40" width="10" height="10" />
    <rect x="50" y="40" width="10" height="10" />
    <rect x="70" y="40" width="10" height="10" />
    <rect x="10" y="50" width="10" height="10" />
    <rect x="30" y="50" width="10" height="10" />
    <rect x="50" y="50" width="10" height="10" />
    <rect x="70" y="50" width="10" height="10" />
    <rect x="10" y="60" width="10" height="10" />
    <rect x="70" y="60" width="10" height="10" />
    <rect x="10" y="70" width="10" height="10" />
    <rect x="20" y="70" width="10" height="10" />
    <rect x="30" y="70" width="10" height="10" />
    <rect x="40" y="70" width="10" height="10" />
    <rect x="50" y="70" width="10" height="10" />
    <rect x="60" y="70" width="10" height="10" />
    <rect x="70" y="70" width="10" height="10" />
    
    <rect x="90" y="10" width="10" height="10" />
    <rect x="100" y="10" width="10" height="10" />
    <rect x="90" y="20" width="10" height="10" />
    <rect x="100" y="20" width="10" height="10" />
    <rect x="90" y="30" width="10" height="10" />
    <rect x="90" y="50" width="10" height="10" />
    <rect x="100" y="50" width="10" height="10" />
    <rect x="90" y="60" width="10" height="10" />
    
    <rect x="10" y="90" width="10" height="10" />
    <rect x="20" y="90" width="10" height="10" />
    <rect x="40" y="90" width="10" height="10" />
    <rect x="60" y="90" width="10" height="10" />
    <rect x="80" y="90" width="10" height="10" />
    <rect x="90" y="90" width="10" height="10" />
    <rect x="30" y="100" width="10" height="10" />
    <rect x="50" y="100" width="10" height="10" />
    <rect x="70" y="100" width="10" height="10" />
    <rect x="100" y="100" width="10" height="10" />
  </g>
</svg> 